<svg xmlns="http://www.w3.org/2000/svg" height="48px" viewBox="0 -960 960 960" width="48px" fill="#000000"><path d="M286.52-819.49l-43.01 43.01 116.02 115.98-189.02 189.14c-15.33 15.19-23.01 34.01-23.01 56.45 0 22.45 7.67 41.27 23.01 56.45l178.01 177.97c15.33 15.33 33.32 23.01 54.01 23.01 20.67 0 38.69-7.67 54.02-23.01l178.01-177.97c15.33-15.17 22.97-33.95 22.97-56.37 0-22.42-7.74-41.41-23.28-56.95L286.52-819.49zM402.5-617.5l199.02 199.02H203.52L402.5-617.5zm338.01 271.02c-7.33 8.67-14.83 18.01-22.5 28.01-7.67 10-14.16 19.3-19.49 27.97-9.33 14-16.66 27.64-22 40.86-5.33 13.21-8.01 25.58-8.01 37.15 0 19.8 7.02 36.76 21.02 50.86 14 14.1 30.92 21.13 50.78 21.13 19.86 0 36.84-7.03 50.98-21.13 14.14-14.1 21.21-31.06 21.21-50.86 0-11.57-2.64-23.94-7.97-37.15-5.33-13.22-12.7-26.86-22.03-40.86-5.33-8.67-11.83-17.97-19.49-27.97-7.67-10-15.17-19.34-22.5-28.01z"/></svg>
